<?xml version="1.0" encoding="UTF-8"?>
<svg id="Layer_2" data-name="Layer 2" xmlns="http://www.w3.org/2000/svg" viewBox="0 0 512 372.2">
  <defs>
    <style>
      .cls-1 {
        stroke-linecap: round;
        stroke-linejoin: round;
        stroke-width: 7.68px;
      }

      .cls-1, .cls-2 {
        fill: none;
        stroke: #c7b299;
      }

      .cls-2 {
        stroke-miterlimit: 10;
      }

      .cls-3 {
        fill: #c7b299;
      }
    </style>
  </defs>
  <g id="Layer_1-2" data-name="Layer 1">
    <g id="Generative_Object" data-name="Generative Object">
      <g>
        <path class="cls-2" d="M402.23,3.91c5.95-.24,41.02,0,42.38,3.33l-.57,251.41c-63.6-6.85-135.5-6.74-187.1,37.24h-1.73c-51.93-43.19-124.1-45.43-187.75-36.81l-.82-251.84c1.21-3.47,40.26-3.29,46.77-2.94,50.17,2.7,99.22,19.16,142.36,44.72l1.08.52,1.12-.69C300.93,22.21,351.67,5.95,402.23,3.91Z"/>
        <path class="cls-2" d="M36.65,307.5c-.26,1.57-.02,6.92,1.44,7.68,2.47,1.28,50.86-.12,55.65-.96,4.05-.71,3.57.72,3.36-4.61,27.74,1.55,55.84,3.01,83.48,5.76,21.32,2.12,58.36,11.76,76.76,11.32,13.09-.31,35.1-6.79,49.9-8.44,59.84-6.68,119.77-10.03,179.96-11.32l-3.46-241.22-.63-3.3c5.78.03,24.89-.92,25.05,6.18l-.96,271.54-9.02,2.69-186.15-.38c-6.32,1.95-8,8.55-13.43,12.86-27.21,21.56-76.51,15.75-97.58-12.07-60.08-4.49-125.03,3.38-184.52-.59-3.26-.22-9.97.31-11.9-2.49l-.77-273.46c1.7-4.58,19.05-4.52,23.92-4.57l.3,3.61-4.09,239.87c1.32,3.22,9.5,1.7,12.67,1.93Z"/>
        <path class="cls-2" d="M97.1,309.61c.21,5.32.69,3.9-3.36,4.61-4.79.84-53.18,2.24-55.65.96-1.46-.75-1.69-6.11-1.44-7.68,20.05,1.45,40.33.99,60.45,2.11Z"/>
      </g>
      <g>
        <path class="cls-3" d="M64.79,43.03c-5.09.06-10.04-1.78-14.94-1.98-.63-.02-1.23.02-1.49.07-.08.02-.15.06.13-.09.24-.12.72-.63.85-1.18l.16-1.11.17,237.11-3.96-3.83c55.59-1.84,112.12,1.24,165.73,17.41,1.39.51,3.98,1.38,5.02,1.93,2.62,2.06,1.2,6.07-.95,6.65-1.4.11-4.73-.86-6.28-1.22-52.73-15.9-108.41-18.89-163.26-17.09-2.12.07-3.89-1.59-3.96-3.71.23-1.57-.51-236.93-.02-238.28.37-1.36,1.43-2.56,2.36-3.12,3.57-2.07,7.55-1.04,11.12-.59,2.28.33,6.52,1.36,8.67,1.39,5.23-.4,5.86,7.15.67,7.65h0Z"/>
        <path class="cls-1" d="M28.07,65.7l-4.09,239.87c1.32,3.22,9.5,1.7,12.67,1.93,20.05,1.45,40.33.99,60.45,2.11,27.74,1.55,55.84,3.01,83.48,5.76,21.32,2.12,58.36,11.76,76.76,11.32,13.09-.31,35.1-6.79,49.9-8.44,59.84-6.68,119.77-10.03,179.96-11.32l-3.46-241.22"/>
        <path class="cls-1" d="M43.37,62.97c-5.2.03-10.42-.94-15.6-.89-4.87.05-22.23,0-23.92,4.57l.77,273.46c1.93,2.8,8.64,2.28,11.9,2.49,59.49,3.97,124.44-3.9,184.52.59,21.07,27.82,70.37,33.63,97.58,12.07,5.43-4.3,7.12-10.91,13.43-12.86l186.15.38,9.02-2.69.96-271.54c-.16-7.1-19.27-6.15-25.05-6.18-4.64-.02-9.78,1.29-14.67.36"/>
        <path class="cls-3" d="M447.73,35.36c2.15-.09,6.43-.93,8.68-1.3,3.76-.43,8.32-1.57,11.79,1.18,1.01.88,1.79,2.27,1.79,3.64,0,0-.2,236-.2,236,.05,1.82-1.32,3.26-2.9,3.9-3.58,1.24-7.42,1.04-11.08,1.21-10.48.13-20.95-.34-31.37-.68-13.67-.66-27.39.65-40.97,1.96-27.35,2.86-54.44,8.15-80.95,15.54-3.21.76-5.31,1.45-7.99,1.59-.43,0-.58-.28-.95-.72-.66-.87-1.39-1.94-1.76-2.71.41-2.66,5.86-4.35,8.63-5.56,26.9-7.51,54.41-12.88,82.21-15.78,12.15-1.16,24.59-2.36,36.8-2.15,13.72.31,27.54,1.29,41.2.64,1.14-.08,2.27-.18,3.28-.43,0,0,0,0,0,0-.04.01-.07.03-.1.05l-.18.11c-.29.16-.62.51-.82.8,0,0-.72,2.23-.72,2.23l.2-236,.13,1.01c.13.61.66,1.16.9,1.28.29.15.22.11.13.09-2.93-.39-7.56.76-10.62,1.2-2.12.39-3.38.61-5.86.54-5.17-.5-4.48-8.13.76-7.64h0Z"/>
        <path class="cls-1" d="M256.86,49.53l1.12-.69C300.93,22.21,351.67,5.95,402.23,3.91c5.95-.24,41.02,0,42.38,3.33l-.57,251.41c-63.6-6.85-135.5-6.74-187.1,37.24l-.87.62"/>
        <path class="cls-1" d="M256.86,49.53l-1.08-.52C212.63,23.45,163.59,6.99,113.42,4.29c-6.51-.35-45.56-.53-46.77,2.94l.82,251.84c63.65-8.62,135.82-6.38,187.75,36.8l.86.63"/>
        <line class="cls-1" x1="256.08" y1="296.51" x2="256.86" y2="49.53"/>
      </g>
    </g>
  </g>
</svg>